<svg width="672" height="702" viewBox="0 0 672 702" fill="none" xmlns="http://www.w3.org/2000/svg">
<path d="M65.7834 327.55L65.5253 327.685L65.7834 327.833V327.55Z" fill="#302F2E"/>
<path d="M56.563 311.424L56.1817 311.202V311.645L56.563 311.424Z" fill="#302F2E"/>
<path d="M65.9065 294.793L65.2669 295.162L65.9065 295.531V294.793Z" fill="#302F2E"/>
<path d="M37.5818 311.35L37.4588 311.424L37.5818 311.498V311.35Z" fill="#302F2E"/>
<path d="M56.7354 278.901L56.0958 278.532V279.27L56.7354 278.901Z" fill="#302F2E"/>
<path d="M66.0049 262.111L65.0825 262.64L66.0049 263.169V262.111Z" fill="#302F2E"/>
<path d="M28.2876 295.163L28.0908 295.052V295.273L28.2876 295.163Z" fill="#302F2E"/>
<path d="M37.6677 278.68L37.2865 278.901L37.6677 279.123V278.68Z" fill="#302F2E"/>
<path d="M56.8337 246.379L56.0589 245.924V246.822L56.8337 246.379Z" fill="#302F2E"/>
<path d="M66.0293 229.527L65.0208 230.118L66.0293 230.696V229.527Z" fill="#302F2E"/>
<path d="M28.3245 262.64L28.0785 262.492V262.775L28.3245 262.64Z" fill="#302F2E"/>
<path d="M37.6677 246.157L37.2865 246.379L37.6677 246.588V246.157Z" fill="#302F2E"/>
<path d="M56.8337 213.844L56.0589 213.401V214.299L56.8337 213.844Z" fill="#302F2E"/>
<path d="M66.0049 197.054L65.0825 197.583L66.0049 198.112V197.054Z" fill="#302F2E"/>
<path d="M28.2385 230.117L28.1156 230.044V230.179L28.2385 230.117Z" fill="#302F2E"/>
<path d="M37.6309 213.709L37.3726 213.844L37.6309 213.992V213.709Z" fill="#302F2E"/>
<path d="M56.6494 181.321L56.1452 181.026V181.617L56.6494 181.321Z" fill="#302F2E"/>
<path d="M65.8694 164.765L65.3529 165.06L65.8694 165.355V164.765Z" fill="#302F2E"/>
<path d="M37.5696 181.272L37.4835 181.322L37.5696 181.371V181.272Z" fill="#302F2E"/>
<path d="M270.499 490.273L270.425 490.322L270.499 490.371V490.273Z" fill="#302F2E"/>
<path d="M289.529 490.322L289.099 490.076V490.568L289.529 490.322Z" fill="#302F2E"/>
<path d="M261.549 474.061L260.872 473.667V474.454L261.549 474.061Z" fill="#302F2E"/>
<path d="M299.18 473.114L297.544 474.061L299.18 475.008V473.114Z" fill="#302F2E"/>
<path d="M317.522 506.583L317.337 506.473V506.694L317.522 506.583Z" fill="#302F2E"/>
<path d="M271.126 456.668L269.183 457.799L271.126 458.919V456.668Z" fill="#302F2E"/>
<path d="M290.943 457.8L288.398 456.323V459.263L290.943 457.8Z" fill="#302F2E"/>
<path d="M318.837 474.061L316.685 472.806V475.303L318.837 474.061Z" fill="#302F2E"/>
<path d="M327.259 489.51L325.844 490.322L327.259 491.134V489.51Z" fill="#302F2E"/>
<path d="M242.395 473.938L242.186 474.061L242.395 474.171V473.938Z" fill="#302F2E"/>
<path d="M242.985 440.382L240.993 441.538L242.985 442.682V440.382Z" fill="#302F2E"/>
<path d="M263.011 441.538L260.135 439.865V443.199L263.011 441.538Z" fill="#302F2E"/>
<path d="M300.102 438.98L295.689 441.538L300.102 444.084V438.98Z" fill="#302F2E"/>
<path d="M320.866 441.538L315.666 438.525V444.54L320.866 441.538Z" fill="#302F2E"/>
<path d="M328.107 455.512L324.148 457.799L328.107 460.075V455.512Z" fill="#302F2E"/>
<path d="M347.125 490.322L344.764 488.957V491.687L347.125 490.322Z" fill="#302F2E"/>
<path d="M355.522 505.575L353.763 506.583L355.522 507.592V505.575Z" fill="#302F2E"/>
<path d="M345.736 522.844L345.466 522.697V523.004L345.736 522.844Z" fill="#302F2E"/>
<path d="M233.335 457.799L232.745 457.455V458.144L233.335 457.799Z" fill="#302F2E"/>
<path d="M234.638 425.265L232.093 423.789V426.741L234.638 425.265Z" fill="#302F2E"/>
<path d="M272.072 422.497L267.278 425.265L272.072 428.045V422.497Z" fill="#302F2E"/>
<path d="M293.119 425.265L287.304 421.919V428.623L293.119 425.265Z" fill="#302F2E"/>
<path d="M329.287 420.935L321.776 425.265L329.287 429.607V420.935Z" fill="#302F2E"/>
<path d="M348.773 457.8L343.941 455.007V460.592L348.773 457.8Z" fill="#302F2E"/>
<path d="M356.26 471.76L352.289 474.061L356.26 476.349V471.76Z" fill="#302F2E"/>
<path d="M375.671 506.583L372.721 504.886V508.293L375.671 506.583Z" fill="#302F2E"/>
<path d="M214.181 457.787L214.169 457.799H214.181V457.787Z" fill="#302F2E"/>
<path d="M243.735 406.556L239.494 409.004L243.735 411.451V406.556Z" fill="#302F2E"/>
<path d="M264.831 409.004L259.225 405.769V412.251L264.831 409.004Z" fill="#302F2E"/>
<path d="M301.233 404.489L293.414 409.004L301.233 413.53V404.489Z" fill="#302F2E"/>
<path d="M323.153 409.004L314.522 404.022V413.998L323.153 409.004Z" fill="#302F2E"/>
<path d="M351.194 425.265L342.736 420.381V430.16L351.194 425.265Z" fill="#302F2E"/>
<path d="M357.317 437.405L350.174 441.538L357.317 445.659V437.405Z" fill="#302F2E"/>
<path d="M377.233 474.061L371.947 470.998V477.124L377.233 474.061Z" fill="#302F2E"/>
<path d="M384.744 487.444L379.778 490.322L384.744 493.2V487.444Z" fill="#302F2E"/>
<path d="M383.958 521.332L381.339 522.844L383.958 524.357V521.332Z" fill="#302F2E"/>
<path d="M374.282 539.106L373.421 538.614V539.61L374.282 539.106Z" fill="#302F2E"/>
<path d="M205.047 441.538L204.653 441.304V441.76L205.047 441.538Z" fill="#302F2E"/>
<path d="M214.685 424.379L213.148 425.265L214.685 426.163V424.379Z" fill="#302F2E"/>
<path d="M215.288 390.811L211.944 392.742L215.288 394.673V390.811Z" fill="#302F2E"/>
<path d="M235.965 392.742L231.429 390.122V395.362L235.965 392.742Z" fill="#302F2E"/>
<path d="M272.957 388.449L265.52 392.742L272.957 397.035V388.449Z" fill="#302F2E"/>
<path d="M294.988 392.742L286.37 387.761V397.724L294.988 392.742Z" fill="#302F2E"/>
<path d="M330.246 386.74L319.858 392.742L330.246 398.745V386.74Z" fill="#302F2E"/>
<path d="M352.953 392.742L341.852 386.321V399.163L352.953 392.742Z" fill="#302F2E"/>
<path d="M358.374 403.05L348.06 409.003L358.374 414.957V403.05Z" fill="#302F2E"/>
<path d="M379.273 441.538L370.914 436.704V446.36L379.273 441.538Z" fill="#302F2E"/>
<path d="M385.605 453.445L378.069 457.799L385.605 462.154V453.445Z" fill="#302F2E"/>
<path d="M406.492 490.322L399.534 486.3V494.344L406.492 490.322Z" fill="#302F2E"/>
<path d="M413.511 502.647L406.701 506.583L413.511 510.519V502.647Z" fill="#302F2E"/>
<path d="M404.869 522.844L400.357 520.237V525.452L404.869 522.844Z" fill="#302F2E"/>
<path d="M383.306 554.998L382.666 555.379L383.306 555.748V554.998Z" fill="#302F2E"/>
<path d="M206.092 409.004L204.136 407.872V410.135L206.092 409.004Z" fill="#302F2E"/>
<path d="M207.149 376.481L203.608 374.439V378.523L207.149 376.481Z" fill="#302F2E"/>
<path d="M244.436 372.828L238.105 376.481L244.436 380.134V372.828Z" fill="#302F2E"/>
<path d="M266.294 376.481L258.488 371.979V380.983L266.294 376.481Z" fill="#302F2E"/>
<path d="M302.02 370.601L291.853 376.481L302.02 382.348V370.601Z" fill="#302F2E"/>
<path d="M324.751 376.481L313.723 370.109V382.853L324.751 376.481Z" fill="#302F2E"/>
<path d="M358.977 369.47L346.843 376.481L358.977 383.492V369.47Z" fill="#302F2E"/>
<path d="M381.179 409.004L369.967 402.533V415.474L381.179 409.004Z" fill="#302F2E"/>
<path d="M386.625 419.139L376.016 425.265L386.625 431.403V419.139Z" fill="#302F2E"/>
<path d="M408.127 457.799L398.722 452.363V463.224L408.127 457.799Z" fill="#302F2E"/>
<path d="M414.286 468.796L405.164 474.061L414.286 479.325V468.796Z" fill="#302F2E"/>
<path d="M436.206 506.583L426.912 501.22V511.946L436.206 506.583Z" fill="#302F2E"/>
<path d="M412.663 536.646L408.397 539.106L412.663 541.578V536.646Z" fill="#302F2E"/>
<path d="M403.295 555.379L401.143 554.137V556.622L403.295 555.379Z" fill="#302F2E"/>
<path d="M186.335 408.45L185.376 409.003L186.335 409.557V408.45Z" fill="#302F2E"/>
<path d="M215.816 357.366L210.886 360.22L215.816 363.061V357.366Z" fill="#302F2E"/>
<path d="M237.133 360.22L230.839 356.579V363.848L237.133 360.22Z" fill="#302F2E"/>
<path d="M273.56 354.881L264.327 360.22L273.56 365.546V354.881Z" fill="#302F2E"/>
<path d="M296.192 360.22L285.78 354.193V366.235L296.192 360.22Z" fill="#302F2E"/>
<path d="M330.762 353.319L318.813 360.22L330.762 367.12V353.319Z" fill="#302F2E"/>
<path d="M353.789 360.22L341.433 353.073V367.354L353.789 360.22Z" fill="#302F2E"/>
<path d="M382.212 376.481L369.451 369.113V383.849L382.212 376.481Z" fill="#302F2E"/>
<path d="M387.265 385.51L374.737 392.742L387.265 399.975V385.51Z" fill="#302F2E"/>
<path d="M409.836 425.265L397.874 418.352V432.178L409.836 425.265Z" fill="#302F2E"/>
<path d="M415.134 434.785L403.455 441.538L415.134 448.279V434.785Z" fill="#302F2E"/>
<path d="M437.681 474.061L426.174 467.419V480.703L437.681 474.061Z" fill="#302F2E"/>
<path d="M443.336 483.495L431.522 490.322L443.336 497.137V483.495Z" fill="#302F2E"/>
<path d="M442.525 517.432L433.145 522.845L442.525 528.269V517.432Z" fill="#302F2E"/>
<path d="M434.362 539.106L427.834 535.342V542.882L434.362 539.106Z" fill="#302F2E"/>
<path d="M411.876 570.546L409.982 571.641L411.876 572.723V570.546Z" fill="#302F2E"/>
<path d="M402.115 587.902L401.734 587.68V588.123L402.115 587.902Z" fill="#302F2E"/>
<path d="M177.435 392.742L176.23 392.053V393.431L177.435 392.742Z" fill="#302F2E"/>
<path d="M186.828 375.067L184.392 376.481L186.828 377.896V375.067Z" fill="#302F2E"/>
<path d="M187.27 341.794L183.521 343.958L187.27 346.111V341.794Z" fill="#302F2E"/>
<path d="M208.12 343.958L203.117 341.068V346.849L208.12 343.958Z" fill="#302F2E"/>
<path d="M244.903 339.493L237.17 343.958L244.903 348.411V339.493Z" fill="#302F2E"/>
<path d="M267.216 343.958L258.033 338.645V349.26L267.216 343.958Z" fill="#302F2E"/>
<path d="M302.376 337.464L291.14 343.959L302.376 350.441V337.464Z" fill="#302F2E"/>
<path d="M325.39 343.959L313.404 337.033V350.872L325.39 343.959Z" fill="#302F2E"/>
<path d="M359.173 336.603L346.462 343.958L359.173 351.302V336.603Z" fill="#302F2E"/>
<path d="M382.335 343.958L369.389 336.48V351.425L382.335 343.958Z" fill="#302F2E"/>
<path d="M387.473 352.606L374.307 360.22L387.473 367.821V352.606Z" fill="#302F2E"/>
<path d="M410.708 392.742L397.431 385.079V400.405L410.708 392.742Z" fill="#302F2E"/>
<path d="M415.675 401.316L402.373 409.003L415.675 416.691V401.316Z" fill="#302F2E"/>
<path d="M439.132 441.538L425.449 433.629V449.435L439.132 441.538Z" fill="#302F2E"/>
<path d="M444.037 449.767L430.121 457.8L444.037 465.832V449.767Z" fill="#302F2E"/>
<path d="M467.653 490.322L453.417 482.093V498.539L467.653 490.322Z" fill="#302F2E"/>
<path d="M472.362 498.244L457.929 506.583L472.362 514.923V498.244Z" fill="#302F2E"/>
<path d="M466.092 522.845L454.204 515.981V529.72L466.092 522.845Z" fill="#302F2E"/>
<path d="M441.48 551.763L435.235 555.379L441.48 558.983V551.763Z" fill="#302F2E"/>
<path d="M432.505 571.64L428.768 569.476V573.793L432.505 571.64Z" fill="#302F2E"/>
<path d="M411.323 604.015L411.077 604.163L411.323 604.311V604.015Z" fill="#302F2E"/>
<path d="M158.023 392.472L157.556 392.742L158.023 393.001V392.472Z" fill="#302F2E"/>
<path d="M178.308 360.22L175.788 358.756V361.671L178.308 360.22Z" fill="#302F2E"/>
<path d="M179.168 327.685L175.37 325.495V329.887L179.168 327.685Z" fill="#302F2E"/>
<path d="M216.271 324.044L209.964 327.685L216.271 331.338V324.044Z" fill="#302F2E"/>
<path d="M237.969 327.685L230.421 323.331V332.052L237.969 327.685Z" fill="#302F2E"/>
<path d="M273.855 321.83L263.712 327.685L273.855 333.552V321.83Z" fill="#302F2E"/>
<path d="M296.709 327.685L285.521 321.227V334.155L296.709 327.685Z" fill="#302F2E"/>
<path d="M330.898 320.563L318.567 327.685L330.898 334.807V320.563Z" fill="#302F2E"/>
<path d="M353.924 327.685L341.372 320.44V334.942L353.924 327.685Z" fill="#302F2E"/>
<path d="M387.351 320.305L374.565 327.685L387.351 335.078V320.305Z" fill="#302F2E"/>
<path d="M410.832 360.22L397.37 352.446V367.981L410.832 360.22Z" fill="#302F2E"/>
<path d="M415.835 368.523L402.054 376.481L415.835 384.439V368.523Z" fill="#302F2E"/>
<path d="M439.709 409.004L425.154 400.602V417.417L439.709 409.004Z" fill="#302F2E"/>
<path d="M444.442 416.531L429.309 425.265L444.442 434.01V416.531Z" fill="#302F2E"/>
<path d="M468.809 457.8L452.839 448.562V467.025L468.809 457.8Z" fill="#302F2E"/>
<path d="M472.964 464.676L456.724 474.061L472.964 483.446V464.676Z" fill="#302F2E"/>
<path d="M497.49 506.583L480.734 496.903V516.264L497.49 506.583Z" fill="#302F2E"/>
<path d="M471.378 532.488L459.896 539.106L471.378 545.736V532.488Z" fill="#302F2E"/>
<path d="M463.867 555.379L455.31 550.434V560.312L463.867 555.379Z" fill="#302F2E"/>
<path d="M440.496 585.983L437.189 587.902L440.496 589.821V585.983Z" fill="#302F2E"/>
<path d="M430.993 604.163L429.517 603.314V605.012L430.993 604.163Z" fill="#302F2E"/>
<path d="M148.987 376.481L148.225 376.038V376.924L148.987 376.481Z" fill="#302F2E"/>
<path d="M158.417 359.248L156.744 360.22L158.417 361.179V359.248Z" fill="#302F2E"/>
<path d="M187.7 308.496L182.635 311.424L187.7 314.351V308.496Z" fill="#302F2E"/>
<path d="M209.005 311.424L202.674 307.771V315.077L209.005 311.424Z" fill="#302F2E"/>
<path d="M245.235 306.38L236.506 311.424L245.235 316.467V306.38Z" fill="#302F2E"/>
<path d="M267.733 311.424L257.775 305.679V317.168L267.733 311.424Z" fill="#302F2E"/>
<path d="M302.426 304.843L291.029 311.424L302.426 318.017V304.843Z" fill="#302F2E"/>
<path d="M325.329 311.424L313.441 304.56V318.3L325.329 311.424Z" fill="#302F2E"/>
<path d="M358.927 304.523L346.966 311.424L358.927 318.324V304.523Z" fill="#302F2E"/>
<path d="M381.609 311.424L369.758 304.572V318.275L381.609 311.424Z" fill="#302F2E"/>
<path d="M410.278 327.685L397.653 320.403V334.979L410.278 327.685Z" fill="#302F2E"/>
<path d="M415.651 336.32L402.435 343.958L415.651 351.585V336.32Z" fill="#302F2E"/>
<path d="M439.562 376.481L425.24 368.203V384.759L439.562 376.481Z" fill="#302F2E"/>
<path d="M444.381 384.095L429.419 392.742L444.381 401.39V384.095Z" fill="#302F2E"/>
<path d="M469.325 425.265L452.581 415.597V434.945L469.325 425.265Z" fill="#302F2E"/>
<path d="M473.357 431.464L455.925 441.538L473.357 451.6V431.464Z" fill="#302F2E"/>
<path d="M498.437 474.061L480.254 463.556V484.553L498.437 474.061Z" fill="#302F2E"/>
<path d="M501.928 479.522L483.241 490.322L501.928 501.122V479.522Z" fill="#302F2E"/>
<path d="M501.264 513.213L484.594 522.844L501.264 532.476V513.213Z" fill="#302F2E"/>
<path d="M495.548 539.106L481.705 531.123V547.101L495.548 539.106Z" fill="#302F2E"/>
<path d="M470.149 567.139L462.355 571.641L470.149 576.143V567.139Z" fill="#302F2E"/>
<path d="M461.531 587.902L456.478 584.974V590.817L461.531 587.902Z" fill="#302F2E"/>
<path d="M439.832 619.662L438.516 620.424L439.832 621.187V619.662Z" fill="#302F2E"/>
<path d="M129.797 376.333L129.539 376.481L129.797 376.629V376.333Z" fill="#302F2E"/>
<path d="M149.725 343.958L147.856 342.876V345.029L149.725 343.958Z" fill="#302F2E"/>
<path d="M158.823 326.037L155.958 327.685L158.823 329.346V326.037Z" fill="#302F2E"/>
<path d="M159.191 292.875L155.221 295.162L159.191 297.463V292.875Z" fill="#302F2E"/>
<path d="M179.955 295.163L174.976 292.284V298.041L179.955 295.163Z" fill="#302F2E"/>
<path d="M216.578 290.993L209.35 295.162L216.578 299.332V290.993Z" fill="#302F2E"/>
<path d="M238.437 295.162L230.187 290.402V299.923L238.437 295.162Z" fill="#302F2E"/>
<path d="M273.843 289.32L263.737 295.162L273.843 301.005V289.32Z" fill="#302F2E"/>
<path d="M296.353 295.162L285.694 289.012V301.313L296.353 295.162Z" fill="#302F2E"/>
<path d="M330.455 288.791L319.427 295.163L330.455 301.534V288.791Z" fill="#302F2E"/>
<path d="M352.817 295.162L341.925 288.865V301.46L352.817 295.162Z" fill="#302F2E"/>
<path d="M386.601 289.086L376.077 295.162L386.601 301.239V289.086Z" fill="#302F2E"/>
<path d="M408.619 295.163L398.476 289.307V301.018L408.619 295.163Z" fill="#302F2E"/>
<path d="M415.048 304.843L403.64 311.424L415.048 318.017V304.843Z" fill="#302F2E"/>
<path d="M438.935 343.959L425.547 336.222V351.683L438.935 343.959Z" fill="#302F2E"/>
<path d="M444.086 352.089L430.022 360.22L444.086 368.338V352.089Z" fill="#302F2E"/>
<path d="M468.735 392.742L452.876 383.578V401.906L468.735 392.742Z" fill="#302F2E"/>
<path d="M473.197 399.212L456.244 409.003L473.197 418.795V399.212Z" fill="#302F2E"/>
<path d="M498.941 441.538L480.009 430.591V452.473L498.941 441.538Z" fill="#302F2E"/>
<path d="M502.26 446.422L482.578 457.799L502.26 469.165V446.422Z" fill="#302F2E"/>
<path d="M527.979 490.322L507.718 478.612V502.032L527.979 490.322Z" fill="#302F2E"/>
<path d="M530.659 494.787L510.239 506.583L530.659 518.379V494.787Z" fill="#302F2E"/>
<path d="M526.97 522.845L508.222 512.008V533.681L526.97 522.845Z" fill="#302F2E"/>
<path d="M500.109 547.74L486.893 555.379L500.109 563.005V547.74Z" fill="#302F2E"/>
<path d="M492.953 571.641L482.995 565.884V577.397L492.953 571.641Z" fill="#302F2E"/>
<path d="M469.042 601.58L464.555 604.163L469.042 606.759V601.58Z" fill="#302F2E"/>
<path d="M459.896 620.424L457.302 618.924V621.925L459.896 620.424Z" fill="#302F2E"/>
<path d="M120.675 360.22L120.158 359.925V360.515L120.675 360.22Z" fill="#302F2E"/>
<path d="M130.104 343.27L128.923 343.959L130.104 344.635V343.27Z" fill="#302F2E"/>
<path d="M150.549 311.424L147.451 309.64V313.219L150.549 311.424Z" fill="#302F2E"/>
<path d="M151.065 278.901L147.18 276.663V281.14L151.065 278.901Z" fill="#302F2E"/>
<path d="M187.922 275.605L182.218 278.901L187.922 282.198V275.605Z" fill="#302F2E"/>
<path d="M209.239 278.901L202.564 275.039V282.764L209.239 278.901Z" fill="#302F2E"/>
<path d="M245.112 274.079L236.753 278.901L245.112 283.723V274.079Z" fill="#302F2E"/>
<path d="M267.118 278.901L258.082 273.686V284.117L267.118 278.901Z" fill="#302F2E"/>
<path d="M301.811 273.378L292.259 278.901L301.811 284.424V273.378Z" fill="#302F2E"/>
<path d="M323.89 278.901L314.154 273.28V284.523L323.89 278.901Z" fill="#302F2E"/>
<path d="M358.018 273.563L348.773 278.901L358.018 284.24V273.563Z" fill="#302F2E"/>
<path d="M379.778 278.901L370.668 273.637V284.154L379.778 278.901Z" fill="#302F2E"/>
<path d="M414.028 274.079L405.68 278.901L414.028 283.723V274.079Z" fill="#302F2E"/>
<path d="M437.435 311.424L426.297 304.99V317.857L437.435 311.424Z" fill="#302F2E"/>
<path d="M443.57 320.452L431.043 327.685L443.57 334.93V320.452Z" fill="#302F2E"/>
<path d="M467.727 360.22L453.38 351.929V368.51L467.727 360.22Z" fill="#302F2E"/>
<path d="M472.681 367.588L457.289 376.481L472.681 385.374V367.588Z" fill="#302F2E"/>
<path d="M498.252 409.003L480.353 398.659V419.348L498.252 409.003Z" fill="#302F2E"/>
<path d="M502.088 414.207L482.934 425.265L502.088 436.323V414.207Z" fill="#302F2E"/>
<path d="M528.421 457.8L507.497 445.708V469.879L528.421 457.8Z" fill="#302F2E"/>
<path d="M530.904 461.834L509.747 474.061L530.904 486.275V461.834Z" fill="#302F2E"/>
<path d="M556.856 506.583L535.502 494.246V518.921L556.856 506.583Z" fill="#302F2E"/>
<path d="M529.847 528.736L511.874 539.106L529.847 549.487V528.736Z" fill="#302F2E"/>
<path d="M524.659 555.379L509.378 546.547V564.199L524.659 555.379Z" fill="#302F2E"/>
<path d="M498.707 582.699L489.696 587.902L498.707 593.105V582.699Z" fill="#302F2E"/>
<path d="M490.482 604.163L484.237 600.559V607.767L490.482 604.163Z" fill="#302F2E"/>
<path d="M468.219 635.517L466.202 636.685L468.219 637.866V635.517Z" fill="#302F2E"/>
<path d="M458.506 652.947L457.99 652.652V653.254L458.506 652.947Z" fill="#302F2E"/>
<path d="M101.645 360.072L101.399 360.22L101.645 360.367V360.072Z" fill="#302F2E"/>
<path d="M121.265 327.685L119.863 326.873V328.509L121.265 327.685Z" fill="#302F2E"/>
<path d="M130.461 310.12L128.21 311.424L130.461 312.728V310.12Z" fill="#302F2E"/>
<path d="M159.339 260.094L154.925 262.64L159.339 265.186V260.094Z" fill="#302F2E"/>
<path d="M180.053 262.64L174.927 259.676V265.604L180.053 262.64Z" fill="#302F2E"/>
<path d="M216.394 258.778L209.719 262.64L216.394 266.502V258.778Z" fill="#302F2E"/>
<path d="M237.785 262.64L230.52 258.433V266.835L237.785 262.64Z" fill="#302F2E"/>
<path d="M273.203 257.904L265.028 262.64L273.203 267.363V257.904Z" fill="#302F2E"/>
<path d="M294.791 262.64L286.468 257.83V267.437L294.791 262.64Z" fill="#302F2E"/>
<path d="M329.509 257.904L321.321 262.64L329.509 267.363V257.904Z" fill="#302F2E"/>
<path d="M350.826 262.64L342.921 258.064V267.203L350.826 262.64Z" fill="#302F2E"/>
<path d="M385.543 258.384L378.179 262.64L385.543 266.896V258.384Z" fill="#302F2E"/>
<path d="M406.492 262.64L399.546 258.618V266.65L406.492 262.64Z" fill="#302F2E"/>
<path d="M435.456 278.901L427.281 274.178V283.625L435.456 278.901Z" fill="#302F2E"/>
<path d="M442.611 289.603L432.973 295.162L442.611 300.722V289.603Z" fill="#302F2E"/>
<path d="M466.46 327.685L454.007 320.501V334.881L466.46 327.685Z" fill="#302F2E"/>
<path d="M472.079 336.111L458.494 343.959L472.079 351.794V336.111Z" fill="#302F2E"/>
<path d="M496.863 376.481L481.041 367.342V385.62L496.863 376.481Z" fill="#302F2E"/>
<path d="M501.412 382.84L484.274 392.742L501.412 402.644V382.84Z" fill="#302F2E"/>
<path d="M527.671 425.265L507.866 413.838V436.704L527.671 425.265Z" fill="#302F2E"/>
<path d="M530.83 429.447L509.906 441.538L530.83 453.617V429.447Z" fill="#302F2E"/>
<path d="M557.152 474.061L535.367 461.477V486.644L557.152 474.061Z" fill="#302F2E"/>
<path d="M559.327 477.64L537.383 490.322L559.327 503.004V477.64Z" fill="#302F2E"/>
<path d="M558.91 510.888L538.207 522.845L558.91 534.801V510.888Z" fill="#302F2E"/>
<path d="M555.308 539.106L536.277 528.121V550.102L555.308 539.106Z" fill="#302F2E"/>
<path d="M528.47 563.633L514.615 571.641L528.47 579.636V563.633Z" fill="#302F2E"/>
<path d="M521.721 587.902L510.841 581.616V594.187L521.721 587.902Z" fill="#302F2E"/>
<path d="M497.601 617.128L491.897 620.424L497.601 623.721V617.128Z" fill="#302F2E"/>
<path d="M488.565 636.686L485.196 634.754V638.629L488.565 636.686Z" fill="#302F2E"/>
<path d="M467.555 669.208L467.543 669.22H467.555V669.208Z" fill="#302F2E"/>
<path d="M92.4731 343.958L92.0181 343.688V344.217L92.4731 343.958Z" fill="#302F2E"/>
<path d="M101.865 327.168L100.943 327.685L101.865 328.214V327.168Z" fill="#302F2E"/>
<path d="M121.855 295.163L119.567 293.834V296.491L121.855 295.163Z" fill="#302F2E"/>
<path d="M130.719 277.155L127.695 278.901L130.719 280.648V277.155Z" fill="#302F2E"/>
<path d="M130.793 244.497L127.535 246.379L130.793 248.261V244.497Z" fill="#302F2E"/>
<path d="M151.065 246.379L147.18 244.128V248.617L151.065 246.379Z" fill="#302F2E"/>
<path d="M187.725 243.414L182.598 246.379L187.725 249.331V243.414Z" fill="#302F2E"/>
<path d="M208.6 246.379L202.883 243.07V249.675L208.6 246.379Z" fill="#302F2E"/>
<path d="M244.522 242.578L237.933 246.379L244.522 250.18V242.578Z" fill="#302F2E"/>
<path d="M265.643 246.379L258.82 242.43V250.315L265.643 246.379Z" fill="#302F2E"/>
<path d="M300.926 242.406L294.041 246.379L300.926 250.339V242.406Z" fill="#302F2E"/>
<path d="M321.886 246.379L315.149 242.479V250.266L321.886 246.379Z" fill="#302F2E"/>
<path d="M357.034 242.738L350.74 246.379L357.034 250.007V242.738Z" fill="#302F2E"/>
<path d="M377.7 246.379L371.713 242.91V249.835L377.7 246.379Z" fill="#302F2E"/>
<path d="M413.069 243.218L407.598 246.379L413.069 249.54V243.218Z" fill="#302F2E"/>
<path d="M433.673 246.379L428.178 243.205V249.552L433.673 246.379Z" fill="#302F2E"/>
<path d="M441.652 258.728L434.878 262.64L441.652 266.551V258.728Z" fill="#302F2E"/>
<path d="M464.494 295.162L455.003 289.676V300.648L464.494 295.162Z" fill="#302F2E"/>
<path d="M471.181 305.126L460.277 311.424L471.181 317.734V305.126Z" fill="#302F2E"/>
<path d="M495.461 343.959L481.754 336.037V351.868L495.461 343.959Z" fill="#302F2E"/>
<path d="M500.625 351.696L485.873 360.22L500.625 368.744V351.696Z" fill="#302F2E"/>
<path d="M526.061 392.742L508.677 382.693V402.792L526.061 392.742Z" fill="#302F2E"/>
<path d="M530.105 398.179L511.358 409.003L530.105 419.828V398.179Z" fill="#302F2E"/>
<path d="M556.721 441.538L535.576 429.312V453.753L556.721 441.538Z" fill="#302F2E"/>
<path d="M559.291 445.179L537.445 457.799L559.291 470.407V445.179Z" fill="#302F2E"/>
<path d="M585.415 490.322L563.458 477.64V503.004L585.415 490.322Z" fill="#302F2E"/>
<path d="M587.333 494.16L565.818 506.583L587.333 519.019V494.16Z" fill="#302F2E"/>
<path d="M584.702 522.845L563.815 510.79V534.911L584.702 522.845Z" fill="#302F2E"/>
<path d="M557.815 545.318L540.408 555.379L557.815 565.429V545.318Z" fill="#302F2E"/>
<path d="M552.517 571.641L537.678 563.067V580.202L552.517 571.641Z" fill="#302F2E"/>
<path d="M527.007 598.702L517.553 604.163L527.007 609.625V598.702Z" fill="#302F2E"/>
<path d="M519.262 620.424L512.07 616.267V624.582L519.262 620.424Z" fill="#302F2E"/>
<path d="M496.519 651.532L494.059 652.947L496.519 654.374V651.532Z" fill="#302F2E"/>
<path d="M486.832 669.22L486.057 668.765V669.663L486.832 669.22Z" fill="#302F2E"/>
<path d="M73.4917 343.811L73.2334 343.959L73.4917 344.094V343.811Z" fill="#302F2E"/>
<path d="M92.9282 311.424L91.7968 310.772V312.076L92.9282 311.424Z" fill="#302F2E"/>
<path d="M102.124 294.191L100.439 295.163L102.124 296.147V294.191Z" fill="#302F2E"/>
<path d="M122.212 262.64L119.384 261.004V264.264L122.212 262.64Z" fill="#302F2E"/>
<path d="M122.249 230.117L119.36 228.445V231.778L122.249 230.117Z" fill="#302F2E"/>
<path d="M159.155 227.866L155.282 230.117L159.155 232.356V227.866Z" fill="#302F2E"/>
<path d="M179.5 230.118L175.198 227.621V232.602L179.5 230.118Z" fill="#302F2E"/>
<path d="M215.89 227.129L210.726 230.118L215.89 233.094V227.129Z" fill="#302F2E"/>
<path d="M236.581 230.117L231.122 226.969V233.254L236.581 230.117Z" fill="#302F2E"/>
<path d="M272.404 226.772L266.626 230.117L272.404 233.451V226.772Z" fill="#302F2E"/>
<path d="M293.021 230.117L287.353 226.833V233.389L293.021 230.117Z" fill="#302F2E"/>
<path d="M328.599 226.956L323.14 230.118L328.599 233.266V226.956Z" fill="#302F2E"/>
<path d="M349.019 230.118L343.818 227.104V233.119L349.019 230.118Z" fill="#302F2E"/>
<path d="M384.671 227.374L379.938 230.117L384.671 232.848V227.374Z" fill="#302F2E"/>
<path d="M404.82 230.117L400.382 227.547V232.676L404.82 230.117Z" fill="#302F2E"/>
<path d="M440.914 227.473L436.353 230.118L440.914 232.75V227.473Z" fill="#302F2E"/>
<path d="M462.662 262.64L455.913 258.741V266.539L462.662 262.64Z" fill="#302F2E"/>
<path d="M470.247 274.215L462.146 278.901L470.247 283.575V274.215Z" fill="#302F2E"/>
<path d="M493.519 311.424L482.713 305.187V317.66L493.519 311.424Z" fill="#302F2E"/>
<path d="M499.813 320.575L487.483 327.685L499.813 334.807V320.575Z" fill="#302F2E"/>
<path d="M524.167 360.22L509.624 351.806V368.621L524.167 360.22Z" fill="#302F2E"/>
<path d="M529.073 367.44L513.423 376.481L529.073 385.522V367.44Z" fill="#302F2E"/>
<path d="M555 409.004L536.436 398.29V419.73L555 409.004Z" fill="#302F2E"/>
<path d="M558.639 413.764L538.735 425.265L558.639 436.766V413.764Z" fill="#302F2E"/>
<path d="M585.23 457.8L563.557 445.278V470.321L585.23 457.8Z" fill="#302F2E"/>
<path d="M587.406 461.502L565.683 474.061L587.406 486.607V461.502Z" fill="#302F2E"/>
<path d="M612.891 506.583L591.943 494.48V518.687L612.891 506.583Z" fill="#302F2E"/>
<path d="M586.571 527.998L567.343 539.106L586.571 550.225V527.998Z" fill="#302F2E"/>
<path d="M582.427 555.379L564.958 545.281V565.466L582.427 555.379Z" fill="#302F2E"/>
<path d="M556.168 580.706L543.702 587.902L556.168 595.097V580.706Z" fill="#302F2E"/>
<path d="M549.443 604.163L539.215 598.259V610.067L549.443 604.163Z" fill="#302F2E"/>
<path d="M525.79 633.34L519.988 636.685L525.79 640.044V633.34Z" fill="#302F2E"/>
<path d="M516.779 652.947L513.312 650.954V654.952L516.779 652.947Z" fill="#302F2E"/>
<path d="M495.757 685.383L495.597 685.481L495.757 685.567V685.383Z" fill="#302F2E"/>
<path d="M64.3208 327.685L63.8658 327.427V327.956L64.3208 327.685Z" fill="#302F2E"/>
<path d="M73.6638 310.981L72.8889 311.424L73.6638 311.879V310.981Z" fill="#302F2E"/>
<path d="M93.3335 278.901L91.5871 277.893V279.91L93.3335 278.901Z" fill="#302F2E"/>
<path d="M102.283 261.385L100.106 262.64L102.283 263.895V261.385Z" fill="#302F2E"/>
<path d="M130.707 212.134L127.731 213.844L130.707 215.566V212.134Z" fill="#302F2E"/>
<path d="M150.684 213.844L147.377 211.937V215.75L150.684 213.844Z" fill="#302F2E"/>
<path d="M187.307 211.618L183.447 213.844L187.307 216.083V211.618Z" fill="#302F2E"/>
<path d="M207.555 213.844L203.4 211.445V216.243L207.555 213.844Z" fill="#302F2E"/>
<path d="M243.833 211.236L239.309 213.844L243.833 216.464V211.236Z" fill="#302F2E"/>
<path d="M264.13 213.844L259.569 211.212V216.488L264.13 213.844Z" fill="#302F2E"/>
<path d="M300.127 211.249L295.627 213.844L300.127 216.452V211.249Z" fill="#302F2E"/>
<path d="M320.301 213.844L315.949 211.335V216.365L320.301 213.844Z" fill="#302F2E"/>
<path d="M356.284 211.507L352.227 213.844L356.284 216.193V211.507Z" fill="#302F2E"/>
<path d="M376.225 213.844L372.451 211.667V216.033L376.225 213.844Z" fill="#302F2E"/>
<path d="M412.405 211.827L408.914 213.844L412.405 215.861V211.827Z" fill="#302F2E"/>
<path d="M432.382 213.844L428.829 211.79V215.91L432.382 213.844Z" fill="#302F2E"/>
<path d="M461.346 230.117L456.576 227.35V232.873L461.346 230.117Z" fill="#302F2E"/>
<path d="M469.436 243.094L463.768 246.379L469.436 249.651V243.094Z" fill="#302F2E"/>
<path d="M491.687 278.901L483.635 274.239V283.551L491.687 278.901Z" fill="#302F2E"/>
<path d="M498.781 289.836L489.548 295.163L498.781 300.489V289.836Z" fill="#302F2E"/>
<path d="M522.397 327.685L510.509 320.821V334.561L522.397 327.685Z" fill="#302F2E"/>
<path d="M528.175 336.455L515.205 343.959L528.175 351.45V336.455Z" fill="#302F2E"/>
<path d="M552.726 376.481L537.568 367.723V385.227L552.726 376.481Z" fill="#302F2E"/>
<path d="M557.557 383.123L540.912 392.742L557.557 402.361V383.123Z" fill="#302F2E"/>
<path d="M583.78 425.265L564.27 413.997V436.532L583.78 425.265Z" fill="#302F2E"/>
<path d="M587.025 429.631L566.433 441.538L587.025 453.433V429.631Z" fill="#302F2E"/>
<path d="M612.977 474.061L591.906 461.883V486.226L612.977 474.061Z" fill="#302F2E"/>
<path d="M615.301 478.218L594.352 490.322L615.301 502.426V478.218Z" fill="#302F2E"/>
<path d="M614.846 511.528L595.25 522.845L614.846 534.161V511.528Z" fill="#302F2E"/>
<path d="M611.367 539.106L592.717 528.343V549.881L611.367 539.106Z" fill="#302F2E"/>
<path d="M585.169 562.956L570.134 571.64L585.169 580.325V562.956Z" fill="#302F2E"/>
<path d="M579.182 587.902L566.569 580.608V595.184L579.182 587.902Z" fill="#302F2E"/>
<path d="M554.803 615.578L546.407 620.424L554.803 625.271V615.578Z" fill="#302F2E"/>
<path d="M546.727 636.685L540.567 633.131V640.253L546.727 636.685Z" fill="#302F2E"/>
<path d="M524.573 667.966L522.408 669.22L524.573 670.475V667.966Z" fill="#302F2E"/>
<path d="M514.984 685.481L514.209 685.026V685.924L514.984 685.481Z" fill="#302F2E"/>
<path d="M64.6277 295.162L63.7176 294.634V295.691L64.6277 295.162Z" fill="#302F2E"/>
<path d="M73.8359 278.163L72.5445 278.901L73.8359 279.639V278.163Z" fill="#302F2E"/>
<path d="M93.5308 246.379L91.5015 245.198V247.547L93.5308 246.379Z" fill="#302F2E"/>
<path d="M102.333 228.777L100.021 230.117L102.333 231.446V228.777Z" fill="#302F2E"/>
<path d="M102.234 196.414L100.205 197.583L102.234 198.751V196.414Z" fill="#302F2E"/>
<path d="M121.966 197.583L119.506 196.168V198.997L121.966 197.583Z" fill="#302F2E"/>
<path d="M158.823 195.922L155.958 197.583L158.823 199.243V195.922Z" fill="#302F2E"/>
<path d="M178.64 197.583L175.628 195.848V199.317L178.64 197.583Z" fill="#302F2E"/>
<path d="M215.263 195.688L211.98 197.583L215.263 199.477V195.688Z" fill="#302F2E"/>
<path d="M235.216 197.583L231.798 195.615V199.551L235.216 197.583Z" fill="#302F2E"/>
<path d="M271.617 195.615L268.2 197.583L271.617 199.551V195.615Z" fill="#302F2E"/>
<path d="M291.509 197.583L288.116 195.615V199.551L291.509 197.583Z" fill="#302F2E"/>
<path d="M327.861 195.701L324.616 197.583L327.861 199.465V195.701Z" fill="#302F2E"/>
<path d="M347.678 197.583L344.494 195.738V199.428L347.678 197.583Z" fill="#302F2E"/>
<path d="M384.031 195.947L381.204 197.583L384.031 199.219V195.947Z" fill="#302F2E"/>
<path d="M403.652 197.583L400.96 196.033V199.145L403.652 197.583Z" fill="#302F2E"/>
<path d="M440.398 195.848L437.398 197.583L440.398 199.317V195.848Z" fill="#302F2E"/>
<path d="M460.388 197.583L457.056 195.664V199.514L460.388 197.583Z" fill="#302F2E"/>
<path d="M468.956 211.421L464.752 213.844L468.956 216.279V211.421Z" fill="#302F2E"/>
<path d="M490.224 246.379L484.36 242.984V249.761L490.224 246.379Z" fill="#302F2E"/>
<path d="M497.982 258.692L491.147 262.64L497.982 266.576V258.692Z" fill="#302F2E"/>
<path d="M520.405 295.162L511.505 290.021V300.304L520.405 295.162Z" fill="#302F2E"/>
<path d="M527.179 305.667L517.209 311.424L527.179 317.18V305.667Z" fill="#302F2E"/>
<path d="M550.869 343.959L538.502 336.812V351.093L550.869 343.959Z" fill="#302F2E"/>
<path d="M556.439 352.532L543.137 360.22L556.439 367.908V352.532Z" fill="#302F2E"/>
<path d="M581.456 392.742L565.438 383.48V402.005L581.456 392.742Z" fill="#302F2E"/>
<path d="M586.005 398.88L568.474 409.004L586.005 419.127V398.88Z" fill="#302F2E"/>
<path d="M612.203 441.538L592.287 430.025V453.039L612.203 441.538Z" fill="#302F2E"/>
<path d="M615.129 445.979L594.684 457.8L615.129 469.608V445.979Z" fill="#302F2E"/>
<path d="M640.466 490.322L620.391 478.723V501.921L640.466 490.322Z" fill="#302F2E"/>
<path d="M642.888 495.451L623.612 506.583L642.888 517.727V495.451Z" fill="#302F2E"/>
<path d="M639.483 522.844L620.882 512.106V533.595L639.483 522.844Z" fill="#302F2E"/>
<path d="M613.715 546.019L597.512 555.379L613.715 564.728V546.019Z" fill="#302F2E"/>
<path d="M608.54 571.64L594.131 563.313V579.968L608.54 571.64Z" fill="#302F2E"/>
<path d="M583.583 598.234L573.318 604.163L583.583 610.092V598.234Z" fill="#302F2E"/>
<path d="M576.317 620.424L568.007 615.627V625.221L576.317 620.424Z" fill="#302F2E"/>
<path d="M553.377 650.597L549.284 652.947L553.377 655.308V650.597Z" fill="#302F2E"/>
<path d="M544.255 669.22L541.808 667.806V670.622L544.255 669.22Z" fill="#302F2E"/>
<path d="M64.8735 262.64L63.5945 261.902V263.366L64.8735 262.64Z" fill="#302F2E"/>
<path d="M73.9219 245.469L72.36 246.379L73.9219 247.277V245.469Z" fill="#302F2E"/>
<path d="M93.5308 213.844L91.5015 212.675V215.025L93.5308 213.844Z" fill="#302F2E"/>
<path d="M93.2478 181.321L91.6367 180.399V182.244L93.2478 181.321Z" fill="#302F2E"/>
<path d="M130.387 180.153L128.358 181.321L130.387 182.49V180.153Z" fill="#302F2E"/>
<path d="M149.909 181.321L147.757 180.079V182.564L149.909 181.321Z" fill="#302F2E"/>
<path d="M186.741 180.079L184.577 181.321L186.741 182.564V180.079Z" fill="#302F2E"/>
<path d="M206.276 181.321L204.038 180.03V182.613L206.276 181.321Z" fill="#302F2E"/>
<path d="M243.084 180.005L240.809 181.321L243.084 182.638V180.005Z" fill="#302F2E"/>
<path d="M262.606 181.321L260.343 180.018V182.625L262.606 181.321Z" fill="#302F2E"/>
<path d="M299.389 180.018L297.114 181.321L299.389 182.625V180.018Z" fill="#302F2E"/>
<path d="M318.813 181.321L316.697 180.091V182.552L318.813 181.321Z" fill="#302F2E"/>
<path d="M355.645 180.091L353.517 181.321L355.645 182.552V180.091Z" fill="#302F2E"/>
<path d="M375.02 181.321L373.052 180.177V182.465L375.02 181.321Z" fill="#302F2E"/>
<path d="M411.901 180.177L409.921 181.321L411.901 182.465V180.177Z" fill="#302F2E"/>
<path d="M431.46 181.321L429.284 180.067V182.576L431.46 181.321Z" fill="#302F2E"/>
<path d="M468.538 179.612L465.576 181.321L468.538 183.031V179.612Z" fill="#302F2E"/>
<path d="M489.253 213.844L484.852 211.298V216.39L489.253 213.844Z" fill="#302F2E"/>
<path d="M497.466 227.067L492.179 230.117L497.466 233.156V227.067Z" fill="#302F2E"/>
<path d="M518.955 262.64L512.23 258.753V266.515L518.955 262.64Z" fill="#302F2E"/>
<path d="M526.368 274.547L518.832 278.901L526.368 283.256V274.547Z" fill="#302F2E"/>
<path d="M548.828 311.424L539.522 306.048V316.811L548.828 311.424Z" fill="#302F2E"/>
<path d="M555.492 321.658L545.042 327.685L555.492 333.724V321.658Z" fill="#302F2E"/>
<path d="M579.047 360.22L566.642 353.049V367.379L579.047 360.22Z" fill="#302F2E"/>
<path d="M584.702 368.596L571.068 376.481L584.702 384.353V368.596Z" fill="#302F2E"/>
<path d="M610.076 409.004L593.356 399.348V418.659L610.076 409.004Z" fill="#302F2E"/>
<path d="M614.354 414.809L596.245 425.265L614.354 435.732V414.809Z" fill="#302F2E"/>
<path d="M640.208 457.799L620.526 446.422V469.165L640.208 457.799Z" fill="#302F2E"/>
<path d="M643.035 462.67L623.329 474.061L643.035 485.439V462.67Z" fill="#302F2E"/>
<path d="M667.439 506.583L649.133 496.005V517.162L667.439 506.583Z" fill="#302F2E"/>
<path d="M641.904 529.683L625.591 539.106L641.904 548.54V529.683Z" fill="#302F2E"/>
<path d="M636.974 555.379L622.136 546.806V563.94L636.974 555.379Z" fill="#302F2E"/>
<path d="M612.104 581.321L600.721 587.902L612.104 594.483V581.321Z" fill="#302F2E"/>
<path d="M605.466 604.163L595.656 598.493V609.834L605.466 604.163Z" fill="#302F2E"/>
<path d="M582.206 633.143L576.072 636.685L582.206 640.24V633.143Z" fill="#302F2E"/>
<path d="M573.478 652.947L569.433 650.61V655.296L573.478 652.947Z" fill="#302F2E"/>
<path d="M552.357 684.866L551.311 685.482L552.357 686.084V684.866Z" fill="#302F2E"/>
<path d="M64.9595 230.117L63.5451 229.293V230.917L64.9595 230.117Z" fill="#302F2E"/>
<path d="M73.9341 212.922L72.3353 213.844L73.9341 214.779V212.922Z" fill="#302F2E"/>
<path d="M102.001 164.297L100.673 165.06L102.001 165.823V164.297Z" fill="#302F2E"/>
<path d="M121.302 165.06L119.838 164.211V165.909L121.302 165.06Z" fill="#302F2E"/>
<path d="M158.355 164.211L156.879 165.06L158.355 165.909V164.211Z" fill="#302F2E"/>
<path d="M177.595 165.06L176.144 164.224V165.897L177.595 165.06Z" fill="#302F2E"/>
<path d="M214.611 164.297L213.295 165.06L214.611 165.81V164.297Z" fill="#302F2E"/>
<path d="M233.814 165.06L232.498 164.297V165.81L233.814 165.06Z" fill="#302F2E"/>
<path d="M270.904 164.31L269.613 165.06L270.904 165.81V164.31Z" fill="#302F2E"/>
<path d="M290.107 165.06L288.816 164.31V165.81L290.107 165.06Z" fill="#302F2E"/>
<path d="M327.259 164.236L325.832 165.06L327.259 165.872V164.236Z" fill="#302F2E"/>
<path d="M346.511 165.06L345.072 164.236V165.884L346.511 165.06Z" fill="#302F2E"/>
<path d="M383.564 164.236L382.138 165.06L383.564 165.884V164.236Z" fill="#302F2E"/>
<path d="M402.841 165.06L401.365 164.211V165.909L402.841 165.06Z" fill="#302F2E"/>
<path d="M440.078 163.879L438.037 165.06L440.078 166.229V163.879Z" fill="#302F2E"/>
<path d="M459.81 165.06L457.338 163.633V166.487L459.81 165.06Z" fill="#302F2E"/>
<path d="M488.565 181.322L485.196 179.378V183.265L488.565 181.322Z" fill="#302F2E"/>
<path d="M497.023 195.295L493.052 197.583L497.023 199.871V195.295Z" fill="#302F2E"/>
<path d="M518.057 230.118L512.673 227.005V233.217L518.057 230.118Z" fill="#302F2E"/>
<path d="M525.852 242.91L519.865 246.379L525.852 249.835V242.91Z" fill="#302F2E"/>
<path d="M547.329 278.901L540.272 274.818V282.973L547.329 278.901Z" fill="#302F2E"/>
<path d="M554.545 290.759L546.935 295.162L554.545 299.566V290.759Z" fill="#302F2E"/>
<path d="M577.067 327.685L567.626 322.236V333.146L577.067 327.685Z" fill="#302F2E"/>
<path d="M583.632 337.931L573.219 343.958L583.632 349.973V337.931Z" fill="#302F2E"/>
<path d="M607.285 376.481L594.758 369.248V383.714L607.285 376.481Z" fill="#302F2E"/>
<path d="M613.039 384.562L598.864 392.742L613.039 400.922V384.562Z" fill="#302F2E"/>
<path d="M638.585 425.265L621.337 415.301V435.24L638.585 425.265Z" fill="#302F2E"/>
<path d="M642.593 430.911L624.201 441.538L642.593 452.154V430.911Z" fill="#302F2E"/>
<path d="M667.869 474.061L648.924 463.101V485.008L667.869 474.061Z" fill="#302F2E"/>
<path d="M670.782 479.645L652.293 490.322L670.782 500.999V479.645Z" fill="#302F2E"/>
<path d="M670.045 513.435L653.768 522.844L670.045 532.254V513.435Z" fill="#302F2E"/>
<path d="M665.189 539.106L650.264 530.483V547.728L665.189 539.106Z" fill="#302F2E"/>
<path d="M640.454 564.74L628.504 571.64L640.454 578.529V564.74Z" fill="#302F2E"/>
<path d="M633.852 587.902L623.697 582.034V593.769L633.852 587.902Z" fill="#302F2E"/>
<path d="M610.728 616.242L603.474 620.424L610.728 624.619V616.242Z" fill="#302F2E"/>
<path d="M602.663 636.685L597.057 633.45V639.933L602.663 636.685Z" fill="#302F2E"/>
<path d="M580.927 667.892L578.628 669.22L580.927 670.536V667.892Z" fill="#302F2E"/>
<path d="M571.412 685.482L570.453 684.928V686.035L571.412 685.482Z" fill="#302F2E"/>
<path d="M64.9106 197.583L63.5823 196.82V198.358L64.9106 197.583Z" fill="#302F2E"/>
<path d="M73.8235 180.583L72.5566 181.322L73.8235 182.06V180.583Z" fill="#302F2E"/>
<path d="M73.6145 148.418L72.975 148.799L73.6145 149.168V148.418Z" fill="#302F2E"/>
<path d="M92.6946 148.799L91.9198 148.344V149.242L92.6946 148.799Z" fill="#302F2E"/>
<path d="M130.043 148.221L129.047 148.799L130.043 149.365V148.221Z" fill="#302F2E"/>
<path d="M149.086 148.799L148.176 148.27V149.328L149.086 148.799Z" fill="#302F2E"/>
<path d="M186.237 148.418L185.586 148.799L186.237 149.168V148.418Z" fill="#302F2E"/>
<path d="M205.207 148.799L204.58 148.43V149.156L205.207 148.799Z" fill="#302F2E"/>
<path d="M242.531 148.442L241.916 148.799L242.531 149.156V148.442Z" fill="#302F2E"/>
<path d="M261.5 148.799L260.885 148.442V149.156L261.5 148.799Z" fill="#302F2E"/>
<path d="M298.885 148.369L298.135 148.799L298.885 149.23V148.369Z" fill="#302F2E"/>
<path d="M317.989 148.799L317.104 148.282V149.303L317.989 148.799Z" fill="#302F2E"/>
<path d="M355.289 148.184L354.231 148.799L355.289 149.414V148.184Z" fill="#302F2E"/>
<path d="M374.479 148.799L373.323 148.122V149.463L374.479 148.799Z" fill="#302F2E"/>
<path d="M411.717 147.963L410.29 148.799L411.717 149.623V147.963Z" fill="#302F2E"/>
<path d="M431.177 148.799L429.431 147.778V149.808L431.177 148.799Z" fill="#302F2E"/>
<path d="M468.378 147.348L465.87 148.799L468.378 150.238V147.348Z" fill="#302F2E"/>
<path d="M488.27 148.799L485.344 147.101V150.496L488.27 148.799Z" fill="#302F2E"/>
<path d="M496.814 163.141L493.482 165.06L496.814 166.979V163.141Z" fill="#302F2E"/>
<path d="M517.406 197.583L513.005 195.049V200.117L517.406 197.583Z" fill="#302F2E"/>
<path d="M525.495 210.99L520.565 213.844L525.495 216.698V210.99Z" fill="#302F2E"/>
<path d="M546.554 246.379L540.666 242.971V249.774L546.554 246.379Z" fill="#302F2E"/>
<path d="M554.017 259.159L548.005 262.64L554.017 266.109V259.159Z" fill="#302F2E"/>
<path d="M575.236 295.163L568.548 291.3V299.025L575.236 295.163Z" fill="#302F2E"/>
<path d="M582.624 307.155L575.235 311.424L582.624 315.704V307.155Z" fill="#302F2E"/>
<path d="M605.109 343.958L595.84 338.595V349.309L605.109 343.958Z" fill="#302F2E"/>
<path d="M611.699 354.352L601.544 360.22L611.699 366.075V354.352Z" fill="#302F2E"/>
<path d="M635.917 392.742L622.665 385.079V400.405L635.917 392.742Z" fill="#302F2E"/>
<path d="M641.449 400.356L626.488 409.003L641.449 417.651V400.356Z" fill="#302F2E"/>
<path d="M667.082 441.538L649.317 431.267V451.797L667.082 441.538Z" fill="#302F2E"/>
<path d="M670.758 447.172L652.354 457.8L670.758 468.415V447.172Z" fill="#302F2E"/>
<path d="M668.619 548.442L656.62 555.379L668.619 562.304V548.442Z" fill="#302F2E"/>
<path d="M662.189 571.641L651.764 565.613V577.656L662.189 571.641Z" fill="#302F2E"/>
<path d="M638.979 599.796L631.43 604.163L638.979 608.53V599.796Z" fill="#302F2E"/>
<path d="M631.221 620.424L625.013 616.845V624.016L631.221 620.424Z" fill="#302F2E"/>
<path d="M609.388 651.102L606.167 652.947L609.388 654.816V651.102Z" fill="#302F2E"/>
<path d="M600.278 669.22L598.249 668.039V670.389L600.278 669.22Z" fill="#302F2E"/>
<path d="M64.5911 165.06L63.7302 164.568V165.552L64.5911 165.06Z" fill="#302F2E"/>
<path d="M64.0994 132.525L63.9764 132.464V132.599L64.0994 132.525Z" fill="#302F2E"/>
<path d="M101.718 132.243L101.226 132.525L101.718 132.821V132.243Z" fill="#302F2E"/>
<path d="M120.675 132.525L120.158 132.243V132.821L120.675 132.525Z" fill="#302F2E"/>
<path d="M157.986 132.316L157.617 132.525L157.986 132.747V132.316Z" fill="#302F2E"/>
<path d="M176.784 132.525L176.55 132.402V132.673L176.784 132.525Z" fill="#302F2E"/>
<path d="M214.206 132.464L214.095 132.525L214.206 132.599V132.464Z" fill="#302F2E"/>
<path d="M233.015 132.525L232.904 132.464V132.599L233.015 132.525Z" fill="#302F2E"/>
<path d="M270.573 132.378L270.29 132.525L270.573 132.685V132.378Z" fill="#302F2E"/>
<path d="M289.505 132.525L289.111 132.304V132.759L289.505 132.525Z" fill="#302F2E"/>
<path d="M327 132.144L326.336 132.525L327 132.919V132.144Z" fill="#302F2E"/>
<path d="M346.142 132.525L345.256 132.021V133.042L346.142 132.525Z" fill="#302F2E"/>
<path d="M383.478 131.861L382.322 132.526L383.478 133.202V131.861Z" fill="#302F2E"/>
<path d="M402.754 132.525L401.414 131.763V133.3L402.754 132.525Z" fill="#302F2E"/>
<path d="M440.029 131.443L438.135 132.525L440.029 133.632V131.443Z" fill="#302F2E"/>
<path d="M459.711 132.525L457.387 131.185V133.878L459.711 132.525Z" fill="#302F2E"/>
<path d="M496.715 130.779L493.691 132.525L496.715 134.284V130.779Z" fill="#302F2E"/>
<path d="M516.914 165.06L513.251 162.944V167.176L516.914 165.06Z" fill="#302F2E"/>
<path d="M525.225 178.948L521.118 181.322L525.225 183.696V178.948Z" fill="#302F2E"/>
<path d="M546.014 213.844L540.924 210.904V216.784L546.014 213.844Z" fill="#302F2E"/>
<path d="M553.795 227.005L548.423 230.118L553.795 233.217V227.005Z" fill="#302F2E"/>
<path d="M574.301 262.64L569.015 259.589V265.691L574.301 262.64Z" fill="#302F2E"/>
<path d="M581.96 275.789L576.563 278.901L581.96 282.013V275.789Z" fill="#302F2E"/>
<path d="M603.106 311.424L596.848 307.807V315.04L603.106 311.424Z" fill="#302F2E"/>
<path d="M610.678 323.589L603.585 327.685L610.678 331.781V323.589Z" fill="#302F2E"/>
<path d="M633.09 360.22L624.079 355.017V365.423L633.09 360.22Z" fill="#302F2E"/>
<path d="M639.937 370.454L629.512 376.481L639.937 382.496V370.454Z" fill="#302F2E"/>
<path d="M664.759 409.004L650.473 400.75V417.269L664.759 409.004Z" fill="#302F2E"/>
<path d="M669.934 416.064L653.989 425.265L669.934 434.478V416.064Z" fill="#302F2E"/>
<path d="M667.106 583.597L659.656 587.902L667.106 592.207V583.597Z" fill="#302F2E"/>
<path d="M659.374 604.163L653.165 600.583V607.742L659.374 604.163Z" fill="#302F2E"/>
<path d="M637.737 634.496L633.938 636.686L637.737 638.887V634.496Z" fill="#302F2E"/>
<path d="M628.75 652.947L626.254 651.508V654.398L628.75 652.947Z" fill="#302F2E"/>
<path d="M608.527 685.1L607.888 685.482L608.527 685.851V685.1Z" fill="#302F2E"/>
<path d="M92.1782 116.264H92.166V116.276L92.1782 116.264Z" fill="#302F2E"/>
<path d="M129.748 116.203L129.637 116.264L129.748 116.338V116.203Z" fill="#302F2E"/>
<path d="M298.713 116.117L298.454 116.264L298.713 116.424V116.117Z" fill="#302F2E"/>
<path d="M317.719 116.264L317.239 115.994V116.547L317.719 116.264Z" fill="#302F2E"/>
<path d="M355.227 115.76L354.342 116.264L355.227 116.781V115.76Z" fill="#302F2E"/>
<path d="M374.417 116.264L373.348 115.661V116.879L374.417 116.264Z" fill="#302F2E"/>
<path d="M411.729 115.428L410.265 116.264L411.729 117.113V115.428Z" fill="#302F2E"/>
<path d="M431.177 116.264L429.431 115.256V117.285L431.177 116.264Z" fill="#302F2E"/>
<path d="M468.342 114.899L465.968 116.264L468.342 117.642V114.899Z" fill="#302F2E"/>
<path d="M488.085 116.264L485.43 114.739V117.802L488.085 116.264Z" fill="#302F2E"/>
<path d="M516.717 132.525L513.349 130.582V134.481L516.717 132.525Z" fill="#302F2E"/>
<path d="M525.077 146.683L521.414 148.799L525.077 150.915V146.683Z" fill="#302F2E"/>
<path d="M545.546 181.321L541.157 178.788V183.855L545.546 181.321Z" fill="#302F2E"/>
<path d="M553.586 194.84L548.841 197.583L553.586 200.326V194.84Z" fill="#302F2E"/>
<path d="M573.981 230.118L569.175 227.338V232.885L573.981 230.118Z" fill="#302F2E"/>
<path d="M581.702 243.697L577.067 246.379L581.702 249.048V243.697Z" fill="#302F2E"/>
<path d="M601.852 278.901L597.475 276.367V281.423L601.852 278.901Z" fill="#302F2E"/>
<path d="M609.818 292.567L605.318 295.163L609.818 297.758V292.567Z" fill="#302F2E"/>
<path d="M630.988 327.685L625.123 324.302V331.08L630.988 327.685Z" fill="#302F2E"/>
<path d="M638.757 339.985L631.885 343.958L638.757 347.919V339.985Z" fill="#302F2E"/>
<path d="M661.562 376.481L652.071 370.995V381.955L661.562 376.481Z" fill="#302F2E"/>
<path d="M668.496 386.038L656.878 392.742L668.496 399.446V386.038Z" fill="#302F2E"/>
<path d="M665.938 618.149L661.992 620.424L665.938 622.7V618.149Z" fill="#302F2E"/>
<path d="M657.087 636.685L654.309 635.086V638.297L657.087 636.685Z" fill="#302F2E"/>
<path d="M636.778 668.691L635.856 669.22L636.778 669.749V668.691Z" fill="#302F2E"/>
<path d="M627.25 685.482L627.004 685.334V685.629L627.25 685.482Z" fill="#302F2E"/>
<path d="M289.308 100.003L289.21 99.9536V100.064L289.308 100.003Z" fill="#302F2E"/>
<path d="M326.939 99.7323L326.459 100.003L326.939 100.286V99.7323Z" fill="#302F2E"/>
<path d="M345.994 100.003L345.33 99.634V100.384L345.994 100.003Z" fill="#302F2E"/>
<path d="M383.441 99.4001L382.383 100.003L383.441 100.618V99.4001Z" fill="#302F2E"/>
<path d="M402.681 100.003L401.451 99.2896V100.716L402.681 100.003Z" fill="#302F2E"/>
<path d="M439.98 98.9944L438.221 100.003L439.98 101.024V98.9944Z" fill="#302F2E"/>
<path d="M459.552 100.003L457.473 98.7974V101.208L459.552 100.003Z" fill="#302F2E"/>
<path d="M496.568 98.5022L493.962 100.003L496.568 101.516V98.5022Z" fill="#302F2E"/>
<path d="M516.336 100.003L513.533 98.3916V101.614L516.336 100.003Z" fill="#302F2E"/>
<path d="M524.93 114.407L521.709 116.264L524.93 118.134V114.407Z" fill="#302F2E"/>
<path d="M545.263 148.799L541.305 146.511V151.075L545.263 148.799Z" fill="#302F2E"/>
<path d="M553.427 162.6L549.173 165.06L553.427 167.508V162.6Z" fill="#302F2E"/>
<path d="M573.748 197.583L569.285 195.012V200.154L573.748 197.583Z" fill="#302F2E"/>
<path d="M581.604 211.347L577.276 213.844L581.604 216.341V211.347Z" fill="#302F2E"/>
<path d="M601.409 246.379L597.696 244.226V248.519L601.409 246.379Z" fill="#302F2E"/>
<path d="M609.449 260.672L606.056 262.64L609.449 264.596V260.672Z" fill="#302F2E"/>
<path d="M629.377 295.162L625.935 293.17V297.155L629.377 295.162Z" fill="#302F2E"/>
<path d="M637.774 309.173L633.865 311.424L637.774 313.687V309.173Z" fill="#302F2E"/>
<path d="M659.091 343.959L653.313 340.613V347.292L659.091 343.959Z" fill="#302F2E"/>
<path d="M666.971 356.148L659.927 360.22L666.971 364.279V356.148Z" fill="#302F2E"/>
<path d="M664.943 652.406L663.984 652.947L664.943 653.5V652.406Z" fill="#302F2E"/>
<path d="M655.489 669.22L655.108 668.999V669.429L655.489 669.22Z" fill="#302F2E"/>
<path d="M298.676 83.6678L298.541 83.7417L298.676 83.8155V83.6678Z" fill="#302F2E"/>
<path d="M317.571 83.7415L317.313 83.5939V83.8891L317.571 83.7415Z" fill="#302F2E"/>
<path d="M355.153 83.3602L354.501 83.7415L355.153 84.1229V83.3602Z" fill="#302F2E"/>
<path d="M374.319 83.7417L373.397 83.2128V84.2706L374.319 83.7417Z" fill="#302F2E"/>
<path d="M411.692 82.9668L410.352 83.7417L411.692 84.5167V82.9668Z" fill="#302F2E"/>
<path d="M431.079 83.7418L429.481 82.8192V84.6643L431.079 83.7418Z" fill="#302F2E"/>
<path d="M468.231 82.5608L466.19 83.7416L468.231 84.9225V82.5608Z" fill="#302F2E"/>
<path d="M487.852 83.7418L485.552 82.4133V85.0702L487.852 83.7418Z" fill="#302F2E"/>
<path d="M524.77 82.1674L522.028 83.7418L524.77 85.3163V82.1674Z" fill="#302F2E"/>
<path d="M544.956 116.264L541.452 114.247V118.294L544.956 116.264Z" fill="#302F2E"/>
<path d="M553.279 130.336L549.468 132.525L553.279 134.727V130.336Z" fill="#302F2E"/>
<path d="M573.514 165.06L569.408 162.686V167.422L573.514 165.06Z" fill="#302F2E"/>
<path d="M581.505 179.009L577.485 181.322L581.505 183.634V179.009Z" fill="#302F2E"/>
<path d="M601.323 213.844L597.733 211.777V215.923L601.323 213.844Z" fill="#302F2E"/>
<path d="M609.388 228.235L606.154 230.117L609.388 231.975V228.235Z" fill="#302F2E"/>
<path d="M628.701 262.64L626.278 261.238V264.03L628.701 262.64Z" fill="#302F2E"/>
<path d="M637.233 277.573L634.933 278.901L637.233 280.23V277.573Z" fill="#302F2E"/>
<path d="M657.148 311.424L654.284 309.775V313.084L657.148 311.424Z" fill="#302F2E"/>
<path d="M665.853 325.557L662.164 327.685L665.853 329.825V325.557Z" fill="#302F2E"/>
<path d="M289.259 67.4804L289.246 67.4681V67.4804H289.259Z" fill="#302F2E"/>
<path d="M326.915 67.2592L326.521 67.4806L326.915 67.702V67.2592Z" fill="#302F2E"/>
<path d="M345.896 67.4804L345.379 67.1729V67.7756L345.896 67.4804Z" fill="#302F2E"/>
<path d="M383.392 66.9392L382.47 67.4804L383.392 68.0093V66.9392Z" fill="#302F2E"/>
<path d="M402.656 67.4805L401.463 66.7916V68.1693L402.656 67.4805Z" fill="#302F2E"/>
<path d="M439.931 66.5455L438.32 67.4804L439.931 68.4152V66.5455Z" fill="#302F2E"/>
<path d="M459.416 67.4805L457.535 66.3857V68.5629L459.416 67.4805Z" fill="#302F2E"/>
<path d="M496.47 66.152L494.17 67.4804L496.47 68.8089V66.152Z" fill="#302F2E"/>
<path d="M516.115 67.4806L513.643 66.0537V68.8951L516.115 67.4806Z" fill="#302F2E"/>
<path d="M544.538 83.7416L541.661 82.0811V85.4022L544.538 83.7416Z" fill="#302F2E"/>
<path d="M553.082 98.1458L549.861 100.003L553.082 101.86V98.1458Z" fill="#302F2E"/>
<path d="M573.305 132.525L569.519 130.336V134.715L573.305 132.525Z" fill="#302F2E"/>
<path d="M581.432 146.597L577.621 148.799L581.432 151.001V146.597Z" fill="#302F2E"/>
<path d="M601.311 181.321L597.733 179.255V183.388L601.311 181.321Z" fill="#302F2E"/>
<path d="M609.412 195.676L606.117 197.583L609.412 199.489V195.676Z" fill="#302F2E"/>
<path d="M628.726 230.118L626.254 228.678V231.532L628.726 230.118Z" fill="#302F2E"/>
<path d="M637.122 245.235L635.142 246.379L637.122 247.523V245.235Z" fill="#302F2E"/>
<path d="M656.128 278.901L654.8 278.139V279.664L656.128 278.901Z" fill="#302F2E"/>
<path d="M665.127 294.277L663.602 295.162L665.127 296.048V294.277Z" fill="#302F2E"/>
<path d="M298.676 51.1455L298.541 51.2193L298.676 51.2931V51.1455Z" fill="#302F2E"/>
<path d="M317.571 51.2193L317.313 51.0717V51.3669L317.571 51.2193Z" fill="#302F2E"/>
<path d="M355.153 50.8379L354.501 51.2192L355.153 51.5882V50.8379Z" fill="#302F2E"/>
<path d="M374.233 51.2192L373.446 50.764V51.6743L374.233 51.2192Z" fill="#302F2E"/>
<path d="M411.643 50.5304L410.438 51.2192L411.643 51.908V50.5304Z" fill="#302F2E"/>
<path d="M430.993 51.2191L429.517 50.358V52.0678L430.993 51.2191Z" fill="#302F2E"/>
<path d="M468.182 50.1244L466.288 51.2191L468.182 52.3139V50.1244Z" fill="#302F2E"/>
<path d="M487.68 51.2193L485.638 50.0385V52.4001L487.68 51.2193Z" fill="#302F2E"/>
<path d="M524.647 49.8539L522.273 51.2192L524.647 52.5846V49.8539Z" fill="#302F2E"/>
<path d="M544.292 51.219L541.783 49.7676V52.6582L544.292 51.219Z" fill="#302F2E"/>
<path d="M552.922 65.8936L550.168 67.4803L552.922 69.0671V65.8936Z" fill="#302F2E"/>
<path d="M572.924 100.003L569.703 98.1458V101.873L572.924 100.003Z" fill="#302F2E"/>
<path d="M581.333 114.235L577.817 116.264L581.333 118.294V114.235Z" fill="#302F2E"/>
<path d="M601.274 148.799L597.758 146.77V150.829L601.274 148.799Z" fill="#302F2E"/>
<path d="M609.437 163.117L606.068 165.06L609.437 167.004V163.117Z" fill="#302F2E"/>
<path d="M628.873 197.583L626.193 196.033V199.133L628.873 197.583Z" fill="#302F2E"/>
<path d="M637.221 212.54L634.958 213.844L637.221 215.16V212.54Z" fill="#302F2E"/>
<path d="M656.055 246.379L654.825 245.653V247.092L656.055 246.379Z" fill="#302F2E"/>
<path d="M664.881 262.185L664.107 262.64L664.881 263.083V262.185Z" fill="#302F2E"/>
<path d="M270.486 34.9457L270.461 34.9582H270.486V34.9457Z" fill="#302F2E"/>
<path d="M289.333 34.9581L289.197 34.8719V35.0319L289.333 34.9581Z" fill="#302F2E"/>
<path d="M326.915 34.7242L326.509 34.958L326.915 35.1917V34.7242Z" fill="#302F2E"/>
<path d="M345.994 34.958L345.33 34.5767V35.327L345.994 34.958Z" fill="#302F2E"/>
<path d="M383.392 34.4167L382.47 34.958L383.392 35.4869V34.4167Z" fill="#302F2E"/>
<path d="M402.656 34.9581L401.463 34.257V35.6469L402.656 34.9581Z" fill="#302F2E"/>
<path d="M439.906 34.0723L438.381 34.9579L439.906 35.8312V34.0723Z" fill="#302F2E"/>
<path d="M459.33 34.9579L457.584 33.937V35.9666L459.33 34.9579Z" fill="#302F2E"/>
<path d="M496.396 33.7524L494.317 34.9579L496.396 36.151V33.7524Z" fill="#302F2E"/>
<path d="M515.955 34.9581L513.729 33.6665V36.2373L515.955 34.9581Z" fill="#302F2E"/>
<path d="M552.849 33.5066L550.34 34.958L552.849 36.3972V33.5066Z" fill="#302F2E"/>
<path d="M572.641 67.4804L569.838 65.869V69.0918L572.641 67.4804Z" fill="#302F2E"/>
<path d="M581.173 81.995L578.149 83.7417L581.173 85.4883V81.995Z" fill="#302F2E"/>
<path d="M601.175 116.264L597.807 114.321V118.22L601.175 116.264Z" fill="#302F2E"/>
<path d="M609.437 130.582L606.068 132.525L609.437 134.481V130.582Z" fill="#302F2E"/>
<path d="M629.058 165.06L626.095 163.35V166.758L629.058 165.06Z" fill="#302F2E"/>
<path d="M637.356 179.772L634.676 181.321L637.356 182.871V179.772Z" fill="#302F2E"/>
<path d="M656.386 213.844L654.665 212.86V214.84L656.386 213.844Z" fill="#302F2E"/>
<path d="M665.017 229.429L663.836 230.118L665.017 230.794V229.429Z" fill="#302F2E"/>
<path d="M261.106 18.6966L261.094 18.6843V18.6966H261.106Z" fill="#302F2E"/>
<path d="M298.713 18.537L298.454 18.6969L298.713 18.8445V18.537Z" fill="#302F2E"/>
<path d="M317.657 18.6967L317.264 18.463V18.9181L317.657 18.6967Z" fill="#302F2E"/>
<path d="M355.153 18.3153L354.501 18.6966L355.153 19.0656V18.3153Z" fill="#302F2E"/>
<path d="M374.319 18.6967L373.397 18.1555V19.2257L374.319 18.6967Z" fill="#302F2E"/>
<path d="M411.68 17.9218L410.364 18.6967L411.68 19.4593V17.9218Z" fill="#302F2E"/>
<path d="M430.993 18.6967L429.517 17.8357V19.5455L430.993 18.6967Z" fill="#302F2E"/>
<path d="M468.133 17.6757L466.374 18.6966L468.133 19.7052V17.6757Z" fill="#302F2E"/>
<path d="M487.606 18.6967L485.675 17.5651V19.8038L487.606 18.6967Z" fill="#302F2E"/>
<path d="M524.623 17.3438L522.31 18.6968L524.623 20.0376V17.3438Z" fill="#302F2E"/>
<path d="M544.268 18.6966L541.796 17.2698V20.1112L544.268 18.6966Z" fill="#302F2E"/>
<path d="M572.519 34.9581L569.912 33.4452V36.4588L572.519 34.9581Z" fill="#302F2E"/>
<path d="M581.075 49.6326L578.321 51.2193L581.075 52.8061V49.6326Z" fill="#302F2E"/>
<path d="M600.954 83.7416L597.917 81.9827V85.5006L600.954 83.7416Z" fill="#302F2E"/>
<path d="M609.375 98.1826L606.203 100.003L609.375 101.836V98.1826Z" fill="#302F2E"/>
<path d="M629.229 132.525L626.009 130.668V134.395L629.229 132.525Z" fill="#302F2E"/>
<path d="M637.454 147.089L634.504 148.799L637.454 150.496V147.089Z" fill="#302F2E"/>
<path d="M656.743 181.321L654.48 180.018V182.625L656.743 181.321Z" fill="#302F2E"/>
<path d="M665.189 196.586L663.467 197.583L665.189 198.579V196.586Z" fill="#302F2E"/>
<path d="M270.486 2.41101L270.462 2.42328L270.486 2.44781V2.41101Z" fill="#302F2E"/>
<path d="M289.345 2.42314L289.197 2.33704V2.50924L289.345 2.42314Z" fill="#302F2E"/>
<path d="M326.964 2.12793L326.435 2.42314L326.964 2.73065V2.12793Z" fill="#302F2E"/>
<path d="M345.994 2.42319L345.33 2.04187V2.8045L345.994 2.42319Z" fill="#302F2E"/>
<path d="M383.441 1.80823L382.383 2.42325L383.441 3.03828V1.80823Z" fill="#302F2E"/>
<path d="M402.656 2.42308L401.463 1.73425V3.12421L402.656 2.42308Z" fill="#302F2E"/>
<path d="M439.894 1.57446L438.406 2.4232L439.894 3.28423V1.57446Z" fill="#302F2E"/>
<path d="M459.33 2.42319L457.584 1.41455V3.44413L459.33 2.42319Z" fill="#302F2E"/>
<path d="M496.384 1.25464L494.342 2.42318L496.384 3.60403V1.25464Z" fill="#302F2E"/>
<path d="M515.918 2.42311L513.742 1.16846V3.69006L515.918 2.42311Z" fill="#302F2E"/>
<path d="M552.837 0.996338L550.365 2.42319L552.837 3.85005V0.996338Z" fill="#302F2E"/>
<path d="M572.519 2.42314L569.912 0.922485V3.93611L572.519 2.42314Z" fill="#302F2E"/>
<path d="M581.075 17.0975L578.321 18.6966L581.075 20.2834V17.0975Z" fill="#302F2E"/>
<path d="M600.856 51.2191L597.967 49.5463V52.892L600.856 51.2191Z" fill="#302F2E"/>
<path d="M609.289 65.783L606.351 67.4804L609.289 69.1779V65.783Z" fill="#302F2E"/>
<path d="M629.131 100.003L626.058 98.2192V101.786L629.131 100.003Z" fill="#302F2E"/>
<path d="M637.528 114.444L634.356 116.264L637.528 118.097V114.444Z" fill="#302F2E"/>
<path d="M657.075 148.799L654.321 147.2V150.386L657.075 148.799Z" fill="#302F2E"/>
<path d="M665.41 163.695L663.049 165.06L665.41 166.413V163.695Z" fill="#302F2E"/>
<path d="M600.856 18.6968L597.967 17.0116V20.3573L600.856 18.6968Z" fill="#302F2E"/>
<path d="M609.277 33.285L606.388 34.9579L609.277 36.6185V33.285Z" fill="#302F2E"/>
<path d="M629.107 67.4804L626.07 65.7214V69.2394L629.107 67.4804Z" fill="#302F2E"/>
<path d="M637.491 81.958L634.418 83.7416L637.491 85.5252V81.958Z" fill="#302F2E"/>
<path d="M657.296 116.264L654.21 114.493V118.048L657.296 116.264Z" fill="#302F2E"/>
<path d="M665.582 130.865L662.693 132.525L665.582 134.211V130.865Z" fill="#302F2E"/>
<path d="M609.289 0.725708L606.351 2.42318L609.289 4.12064V0.725708Z" fill="#302F2E"/>
<path d="M629.107 34.9579L626.07 33.199V36.7046L629.107 34.9579Z" fill="#302F2E"/>
<path d="M637.479 49.4603L634.442 51.2193L637.479 52.966V49.4603Z" fill="#302F2E"/>
<path d="M657.345 83.7416L654.174 81.9088V85.5744L657.345 83.7416Z" fill="#302F2E"/>
<path d="M665.644 98.2192L662.57 100.003L665.644 101.786V98.2192Z" fill="#302F2E"/>
<path d="M629.131 2.42325L626.058 0.651978V4.20682L629.131 2.42325Z" fill="#302F2E"/>
<path d="M637.528 16.8638L634.356 18.6965L637.528 20.517V16.8638Z" fill="#302F2E"/>
<path d="M657.358 51.2192L654.174 49.3741V53.052L657.358 51.2192Z" fill="#302F2E"/>
<path d="M665.681 65.6477L662.497 67.4805L665.681 69.3133V65.6477Z" fill="#302F2E"/>
<path d="M657.456 18.6968L654.124 16.7656V20.6157L657.456 18.6968Z" fill="#302F2E"/>
<path d="M665.729 33.0269L662.398 34.958L665.729 36.8769V33.0269Z" fill="#302F2E"/>
<path d="M665.742 0.479858L662.373 2.42334L665.742 4.37911V0.479858Z" fill="#302F2E"/>
</svg>
