<?xml version="1.0" encoding="UTF-8" standalone="no"?>
<svg version="1.1" xmlns="http://www.w3.org/2000/svg" id="full" viewBox="20 30 200 130">
    <g>
	    <path style="fill:#FFFFFF;" d="M91.057,99.662c5.709,0,9.077-0.162,10.101-0.485c3.232-0.915,4.848-3.447,4.848-7.596v-9.293   c0-2.909-0.715-4.982-2.141-6.222c-1.428-1.239-3.65-1.859-6.666-1.859H63.583v41.696h6.949V99.662h12.282l16.969,16.242h10.343   L91.057,99.662z M97.966,93.359c-0.674,0.593-1.846,0.889-3.515,0.889H70.533V79.623h23.918c1.669,0,2.841,0.311,3.515,0.929   c0.673,0.62,1.01,1.737,1.01,3.353v6.06C98.976,91.636,98.639,92.767,97.966,93.359z"></path>
	    <path style="fill:#FFFFFF;" d="M165.64,110.167h-33.534V96.915h20.282V91.42h-20.282V79.784h33.211v-5.576h-40.16v41.696h40.483V110.167z"></path>
	    <path style="fill:#FFFFFF;" d="M204.588,93.764l18.343-19.555h-8.646l-13.737,15.757l-14.626-15.757h-10.02l20.525,20.201l-20.201,21.494h8.808   l15.353-17.777l16.565,17.777h10.02L204.588,93.764z"></path>
    </g>
    <g>
	    <polygon style="fill:#FFFFFF;" points="32.824,82.578 32.776,88.21 35.802,88.197 35.851,82.565  "></polygon>
	    <polygon style="fill:#FFFFFF;" points="25.167,82.611 22.14,82.625 22.092,88.256 25.118,88.243  "></polygon>
	    <path style="fill:#FFFFFF;" d="M12.197,74.287l-4.31-0.017v0.017h-0.02v3.284v38.349h2.961h0.323h9.059v-0.063l0.019,0l-0.019-1.582v-1.64h-9.05   l-0.002-35.065H46.95l-0.287,35.047H30.232l0.098-7c0,0,10.101-1.012,7.678-15.597c-9.718,0.082-12.878-0.023-18.112,0.059   c-1.109,6.741,0.308,10.551,2.196,12.709v0.036h0.032c2.292,2.59,5.259,2.766,5.259,2.766l-0.03,7.027h-0.007v1.646l-0.006,1.46   h0.006v0.179h22.335h0.104h0.065v-0.912v-0.028v-37.39v-3.284H12.197z"></path>
    </g>
</svg>